<?xml version="1.0" encoding="UTF-8"?>
<!-- Created with Inkscape (http://www.inkscape.org/) -->
<svg width="48" height="38" version="1.1" viewBox="0 0 12.7 10.054" xml:space="preserve" xmlns="http://www.w3.org/2000/svg"><path d="m0.58774 5.1888c-0.088808-0.056178-0.15277 0.064594-0.21976 0.13984-0.066987 0.07525-0.11117 0.16223-0.14983 0.30966-0.038662 0.14743-0.049227 0.39638-0.035503 0.56937 0.013723 0.17298 0.041353 0.32219 0.103 0.45928 0.061647 0.1371 0.13224 0.23821 0.25215 0.34982 0.11991 0.11161 0.31402 0.21207 0.46948 0.28968 0.15546 0.077603 0.26725 0.12555 0.45706 0.17894 0.18982 0.053398 0.4471 0.10257 0.68167 0.12072 0.23457 0.018151 0.48583 0.00198 0.7192-0.014984 0.23336-0.01697 0.4775-0.034758 0.67924-0.084905 0.20175-0.050146 0.38539-0.13095 0.52613-0.19978s0.21058-0.10889 0.32221-0.19614c0.11163-0.087248 0.25981-0.23938 0.33619-0.33256 0.076384-0.093178 0.10028-0.1312 0.14765-0.20879 0.047371-0.077585 0.05897-0.069577 0.069577-0.16083 0.010613-0.091254 0.0057955-0.30209-0.0026287-0.41083-0.008412-0.10874-0.02855-0.23457-0.086382-0.30696-0.057832-0.072388-0.15292-0.14776-0.20836-0.11301-0.055448 0.034754-0.00281 0.11132 0.00715 0.15544 0.00994 0.044115 0.034996 0.053273 0.044817 0.10671 0.00982 0.053435 0.01564 0.13242-0.00717 0.21012-0.022826 0.07769-0.05762 0.14913-0.14102 0.23678-0.083411 0.087647-0.23514 0.16882-0.37503 0.24933-0.13989 0.080505-0.30501 0.16538-0.46476 0.22891-0.15975 0.063527-0.35235 0.12216-0.49059 0.1514-0.13824 0.029243-0.20162 0.029318-0.33205 0.039232-0.13042 0.0099133-0.29266 0.015297-0.45017 0.015366-0.15751 6.83e-5 -0.35329 0.0041415-0.49437-0.016446-0.14109-0.02059-0.23072-0.052383-0.34903-0.091567-0.1183-0.039184-0.24724-0.088361-0.35886-0.14463-0.11162-0.05627-0.21592-0.11512-0.30943-0.19003-0.093509-0.074909-0.19763-0.18878-0.24784-0.25522-0.050216-0.066441-0.044765-0.077899-0.07198-0.12465-0.027215-0.046753-0.071811-0.10135-0.09142-0.1558-0.019609-0.054445-0.027209-0.12345-0.02666-0.16443 5.4873e-4 -0.040977 0.01076-0.06003 0.019026-0.10534 0.008265-0.045305 0.017862-0.073077 0.032528-0.1665 0.014666-0.093425 0.13457-0.31101 0.045766-0.36719z" fill="#666" stroke="#000" stroke-width=".012227"/><path d="m0.88782 1.9054-0.33563 3.6437s-0.027376 0.14123-0.043937 0.21998c-0.013985 0.066499-0.018207 0.066907-0.012569 0.11906 0.005453 0.050422 0.019754 0.095706 0.040422 0.13948 0.068354 0.14475 0.15588 0.28533 0.27126 0.39629 0.12803 0.12312 0.29192 0.20484 0.45114 0.28357 0.20696 0.10234 0.42218 0.19866 0.64891 0.24222 0.17606 0.03383 0.35844 0.014308 0.53771 0.012056 0.19798-0.00249 0.39751 0.00114 0.59331-0.028252 0.20668-0.031028 0.41065-0.084997 0.60744-0.15539 0.14678-0.052511 0.28506-0.12668 0.42379-0.19777 0.12007-0.061532 0.24558-0.11634 0.35316-0.19777 0.079644-0.060288 0.15938-0.12693 0.2119-0.2119 0.04697-0.076 0.082027-0.16497 0.084758-0.25428 0.00223-0.073066-0.056505-0.2119-0.056505-0.2119l-0.24015-3.5599s-0.17667 0.17634-0.28253 0.24015c-0.15202 0.091641-0.32308 0.15142-0.49442 0.19777-0.21599 0.058426-0.44019 0.097173-0.66394 0.098885-0.21376 0.0016351-0.42592-0.043574-0.63569-0.084758-0.21966-0.043126-0.43884-0.094674-0.64981-0.16952-0.16087-0.057068-0.32349-0.1182-0.46617-0.2119-0.12867-0.084496-0.34244-0.30985-0.34244-0.30985z" fill="#666" stroke="#000" stroke-width=".012227"/><g fill="#4d4d4d" stroke="#000" stroke-width=".012227"><ellipse transform="rotate(-.11901)" cx="1.4282" cy="2.7642" rx=".085781" ry=".14297"/><ellipse transform="rotate(-.11901)" cx="1.78" cy="2.89" rx=".085781" ry=".14297"/><ellipse transform="rotate(-.11901)" cx="2.1373" cy="2.9712" rx=".085781" ry=".14297"/><ellipse transform="rotate(-.11901)" cx="4.1858" cy="2.7377" rx=".085781" ry=".14297"/><ellipse transform="rotate(-.11901)" cx="3.8853" cy="2.8652" rx=".085781" ry=".14297"/><ellipse transform="rotate(-.11901)" cx="3.1186" cy="3.035" rx=".085781" ry=".14297"/><ellipse transform="rotate(-.11901)" cx="3.5297" cy="2.9651" rx=".085781" ry=".14297"/></g><path d="m4.5633 3.211 0.131 0.24985 0.16385 0.18413 5.6585 3.7214 1.7887 1.0215s0.04889 0.00618 0.06887-0.00526c0.04696-0.026875 0.0926-0.13328 0.0926-0.13328l-0.0716-0.028834s-0.02451 0.012237-0.0378 0.01476c-0.02762 0.00524-0.05695 0.00661-0.08434 2.607e-4 -0.06436-0.014936-0.11971-0.056171-0.17769-0.087844-0.04894-0.026731-0.09174-0.049617-0.14342-0.086121-0.08207-0.057968-0.15467-0.091808-0.22798-0.14374-0.04099-0.02903-0.09164-0.050882-0.11807-0.093577-0.01328-0.021431-0.02985-0.053162-0.01565-0.07399 0.01492-0.021888 0.05193-0.01438 0.07839-0.013101 0.03874 0.00187 0.07619 0.016184 0.11235 0.030146 0.07386 0.028504 0.13505 0.064622 0.21126 0.10852 0.06515 0.037529 0.14265 0.072196 0.20768 0.11819 0.06873 0.048611 0.1524 0.090481 0.19089 0.16535 0.0094 0.01822 0.0058 0.061197 0.0058 0.061197l0.07016 0.029765s0.03634-0.091255 0.03087-0.13811c-0.0039-0.033151-0.04374-0.090073-0.04374-0.090073z" fill="#666"/><path d="m0.89164 1.9297c-0.011849-0.08417 0.084703-0.18 0.17007-0.2634 0.085369-0.083407 0.18273-0.12432 0.33361-0.19208 0.15088-0.067754 0.37769-0.15133 0.57623-0.19208 0.19854-0.040752 0.43891-0.054266 0.60656-0.050546 0.16765 0.00371 0.26267 0.026987 0.39426 0.050546 0.13159 0.02356 0.25396 0.049453 0.39426 0.090984 0.1403 0.04153 0.31596 0.090355 0.44481 0.16175 0.063551 0.035214 0.15325 0.073246 0.20611 0.11641 0.054307 0.04435 0.11082 0.083198 0.1567 0.1256 0.050427 0.046604 0.081489 0.085315 0.11625 0.13381 0.027645 0.038571 0.065142 0.077862 0.084713 0.10524 0.04418 0.0618 0.052627 0.063447 0.042785 0.1255-0.00984 0.062052-0.11929 0.12134-0.18197 0.17186-0.062677 0.050523-0.11146 0.087779-0.19208 0.13142-0.080613 0.043642-0.1885 0.087195-0.29317 0.12131-0.10467 0.034117-0.21323 0.066491-0.33361 0.080874-0.12038 0.014384-0.25949 0.031467-0.41454 0.028594-0.15505-0.0028732-0.41342-0.016826-0.58123-0.043758-0.16782-0.026932-0.25957-0.048293-0.38119-0.079341-0.12162-0.031049-0.19141-0.060454-0.28097-0.087462s-0.23742-0.077472-0.3235-0.11626c-0.086078-0.038786-0.15724-0.066355-0.2364-0.11028-0.079161-0.043928-0.13984-0.088853-0.19831-0.13234-0.058463-0.043489-0.097566-0.092183-0.10942-0.17635z" fill="#666" stroke="#000" stroke-width=".012227"/><g fill="#4d4d4d" stroke="#000"><ellipse cx="2.6172" cy="3.0408" rx=".085781" ry=".14297" stroke-width=".012227"/><ellipse transform="rotate(-.11901)" cx="1.0765" cy="2.5687" rx=".085781" ry=".14297" stroke-width=".012227"/><g stroke-width=".01263"><ellipse transform="matrix(1 -.0019445 .0022188 1 0 0)" cx="1.3464" cy="3.2462" rx=".091584" ry=".14289"/><ellipse transform="matrix(1 -.0019445 .0022188 1 0 0)" cx="1.722" cy="3.3719" rx=".091584" ry=".14289"/><ellipse transform="matrix(1 -.0019445 .0022188 1 0 0)" cx="2.1034" cy="3.4531" rx=".091584" ry=".14289"/><ellipse transform="matrix(1 -.0019445 .0022188 1 0 0)" cx="4.2906" cy="3.2197" rx=".091584" ry=".14289"/><ellipse transform="matrix(1 -.0019445 .0022188 1 0 0)" cx="3.9697" cy="3.3472" rx=".091584" ry=".14289"/><ellipse transform="matrix(1 -.0019445 .0022188 1 0 0)" cx="3.1512" cy="3.5169" rx=".091584" ry=".14289"/><ellipse transform="matrix(1 -.0019445 .0022188 1 0 0)" cx="3.59" cy="3.447" rx=".091584" ry=".14289"/><ellipse cx="2.6169" cy="3.523" rx=".091584" ry=".14289"/><ellipse transform="matrix(1 -.0019445 .0022188 1 0 0)" cx=".97088" cy="3.0508" rx=".091584" ry=".14289"/></g><g stroke-width=".012774"><ellipse transform="matrix(1 -.0019003 .0022704 1 0 0)" cx="1.3155" cy="3.7314" rx=".093695" ry=".14286"/><ellipse transform="matrix(1 -.0019003 .0022704 1 0 0)" cx="1.6998" cy="3.857" rx=".093695" ry=".14286"/><ellipse transform="matrix(1 -.0019003 .0022704 1 0 0)" cx="2.09" cy="3.9382" rx=".093695" ry=".14286"/><ellipse transform="matrix(1 -.0019003 .0022704 1 0 0)" cx="4.3276" cy="3.7049" rx=".093695" ry=".14286"/><ellipse transform="matrix(1 -.0019003 .0022704 1 0 0)" cx="3.9993" cy="3.8323" rx=".093695" ry=".14286"/><ellipse transform="matrix(1 -.0019003 .0022704 1 0 0)" cx="3.1619" cy="4.0019" rx=".093695" ry=".14286"/><ellipse transform="matrix(1 -.0019003 .0022704 1 0 0)" cx="3.6109" cy="3.9321" rx=".093695" ry=".14286"/><ellipse cx="2.6164" cy="4.0082" rx=".093695" ry=".14286"/><ellipse transform="matrix(1 -.0019003 .0022704 1 0 0)" cx=".93137" cy="3.5359" rx=".093695" ry=".14286"/></g><g stroke-width=".012968"><ellipse transform="matrix(1 -.0018428 .0023413 1 0 0)" cx="1.2482" cy="4.1861" rx=".096597" ry=".14283"/><ellipse transform="matrix(1 -.0018428 .0023413 1 0 0)" cx="1.6444" cy="4.3117" rx=".096597" ry=".14283"/><ellipse transform="matrix(1 -.0018428 .0023413 1 0 0)" cx="2.0467" cy="4.3928" rx=".096597" ry=".14283"/><ellipse transform="matrix(1 -.0018428 .0023413 1 0 0)" cx="4.3536" cy="4.1596" rx=".096597" ry=".14283"/><ellipse transform="matrix(1 -.0018428 .0023413 1 0 0)" cx="4.0151" cy="4.287" rx=".096597" ry=".14283"/><ellipse transform="matrix(1 -.0018428 .0023413 1 0 0)" cx="3.1518" cy="4.4566" rx=".096597" ry=".14283"/><ellipse transform="matrix(1 -.0018428 .0023413 1 0 0)" cx="3.6147" cy="4.3868" rx=".096597" ry=".14283"/><ellipse cx="2.5904" cy="4.4631" rx=".096597" ry=".14283"/><ellipse transform="matrix(1 -.0018428 .0023413 1 0 0)" cx=".85218" cy="3.9907" rx=".096597" ry=".14283"/></g><g stroke-width=".013108"><ellipse transform="matrix(1 -.001803 .0023929 1 0 0)" cx="1.2274" cy="4.6308" rx=".098708" ry=".1428"/><ellipse transform="matrix(1 -.001803 .0023929 1 0 0)" cx="1.6323" cy="4.7564" rx=".098708" ry=".1428"/><ellipse transform="matrix(1 -.001803 .0023929 1 0 0)" cx="2.0434" cy="4.8375" rx=".098708" ry=".1428"/><ellipse transform="matrix(1 -.001803 .0023929 1 0 0)" cx="4.4007" cy="4.6043" rx=".098708" ry=".1428"/><ellipse transform="matrix(1 -.001803 .0023929 1 0 0)" cx="4.0548" cy="4.7317" rx=".098708" ry=".1428"/><ellipse transform="matrix(1 -.001803 .0023929 1 0 0)" cx="3.1726" cy="4.9013" rx=".098708" ry=".1428"/><ellipse transform="matrix(1 -.001803 .0023929 1 0 0)" cx="3.6456" cy="4.8315" rx=".098708" ry=".1428"/><ellipse cx="2.6001" cy="4.9079" rx=".098708" ry=".1428"/><ellipse transform="matrix(1 -.001803 .0023929 1 0 0)" cx=".82276" cy="4.4355" rx=".098708" ry=".1428"/></g><g stroke-width=".011427"><rect transform="matrix(.99736 .072675 -.096961 .99529 0 0)" x="1.2478" y="4.8628" width=".071043" height="1.1346"/><rect transform="matrix(.99736 .072675 -.096961 .99529 0 0)" x="1.5473" y="5.1224" width=".071043" height="1.1346"/><rect transform="matrix(.99736 .072675 -.096961 .99529 0 0)" x="1.8338" y="5.2538" width=".071043" height="1.1346"/><rect transform="matrix(.99736 .072675 -.096961 .99529 0 0)" x="2.1848" y="5.3196" width=".071043" height="1.1346"/><rect transform="matrix(.99986 -.016749 -.0076242 .99997 0 0)" x="2.5254" y="5.6682" width=".071043" height="1.1346"/><rect transform="matrix(.99919 .040253 -.064593 .99791 0 0)" x="2.4045" y="5.4792" width=".071043" height="1.1346"/><rect transform="matrix(-.99965 .026565 .050921 .9987 0 0)" x="-4.0659" y="5.102" width=".071043" height="1.1346"/><rect transform="matrix(-.99965 .026565 .050921 .9987 0 0)" x="-3.7663" y="5.3616" width=".071043" height="1.1346"/><rect transform="matrix(-.99965 .026565 .050921 .9987 0 0)" x="-3.4799" y="5.493" width=".071043" height="1.1346"/><rect transform="matrix(-.99965 .026565 .050921 .9987 0 0)" x="-3.1289" y="5.5588" width=".071043" height="1.1346"/><rect transform="matrix(-.99998 -.0059071 .018466 .99983 0 0)" x="-2.9183" y="5.5455" width=".071043" height="1.1346"/></g></g><path d="m9.1691 4.6022s1.0527-0.065083 1.5155 0.14297c0.5351 0.24057 0.99778 0.69031 1.2867 1.2009 0.29275 0.51738 0.59029 1.1914 0.37172 1.7442-0.19637 0.49668-0.79024 0.81726-1.3153 0.91499-0.86815 0.16159-2.0569 0.087177-2.5734-0.62906-0.54818-0.76011 0.66685-1.9737 0.22875-2.8022-0.41504-0.78485-1.7215-0.65598-2.3161-1.3153-0.3973-0.44055-0.71484-1.6298-0.71484-1.6298" fill="none" stroke="#0f0" stroke-width=".12227"/><path transform="matrix(1.2227 0 0 1.2227 -2.6686 -3.6613)" d="m12.094 9.391-0.05408 0.06285 0.15932 0.10231 0.05993-0.06285z" fill="#666"/></svg>
