<?xml version="1.0" encoding="UTF-8" standalone="no"?>
<!-- Created with Inkscape (http://www.inkscape.org/) -->

<svg
   width="48"
   height="38"
   viewBox="0 0 12.7 10.054167"
   version="1.1"
   id="svg1"
   xml:space="preserve"
   xmlns="http://www.w3.org/2000/svg"
   xmlns:svg="http://www.w3.org/2000/svg"><defs
     id="defs1" /><g
     id="layer1"><path
       style="fill:#666666;stroke:#000000;stroke-width:0.0122267;stroke-dasharray:none"
       d="M 0.58774023,5.1888293 C 0.4989326,5.1326512 0.43497158,5.2534229 0.36798496,5.3286738 0.30099835,5.4039241 0.25681337,5.490902 0.21815181,5.6383289 0.17948961,5.7857558 0.16892451,6.0347116 0.18264911,6.2076947 0.19637241,6.3806778 0.22400241,6.5298798 0.2856508,6.666975 0.347298,6.8040701 0.41788601,6.905187 0.53779607,7.0167935 c 0.11991,0.1116069 0.3140202,0.2120748 0.46947683,0.2896773 0.1554568,0.077603 0.2672456,0.1255453 0.4570646,0.1789428 0.189819,0.053398 0.4470967,0.1025726 0.6816671,0.1207231 0.2345705,0.018151 0.4858344,0.00198 0.7191989,-0.014984 C 3.098568,7.5741822 3.3427004,7.5563947 3.5444468,7.506248 3.7461931,7.4561018 3.9298389,7.3752995 4.0705766,7.3064708 4.2113143,7.2376421 4.2811566,7.1975765 4.3927911,7.1103289 4.5044257,7.0230812 4.6526018,6.8709484 4.7289853,6.7777705 4.8053694,6.6845929 4.8292666,6.6465661 4.8766375,6.5689807 4.9240087,6.491396 4.935607,6.4994033 4.9462149,6.408149 4.9568277,6.3168948 4.9520104,6.1060628 4.9435862,5.9973212 4.9351742,5.888579 4.9150367,5.7627533 4.8572043,5.6903647 4.7993719,5.6179764 4.7042886,5.5426003 4.6488399,5.577353 c -0.055448,0.034754 -0.00281,0.1113208 0.00715,0.1554361 0.00994,0.044115 0.034996,0.053273 0.044817,0.1067076 0.00982,0.053435 0.01564,0.132425 -0.00717,0.2101157 -0.022826,0.07769 -0.05762,0.1491312 -0.1410229,0.2367777 C 4.4692031,6.3740368 4.3174757,6.4552141 4.1775828,6.5357187 4.03769,6.6162235 3.8725697,6.7011004 3.7128214,6.7646273 3.5530731,6.828154 3.3604672,6.8867846 3.2222302,6.9160279 3.0839933,6.9452708 3.020607,6.9453463 2.8901846,6.9552597 2.7597621,6.965173 2.5975241,6.9705569 2.4400102,6.9706259 2.2824963,6.9706942 2.0867229,6.9747674 1.9456367,6.9541795 1.8045505,6.9335898 1.7149151,6.9017963 1.5966111,6.8626124 1.4783072,6.8234285 1.3493757,6.7742514 1.2377519,6.7179811 1.1261281,6.6617109 1.0218313,6.6028627 0.92832233,6.5279541 0.83481333,6.4530453 0.73069643,6.3391729 0.68048033,6.2727316 0.63026413,6.2062902 0.63571523,6.1948322 0.60850013,6.1480801 0.58128503,6.1013275 0.53668883,6.04673 0.51707984,5.9922845 c -0.019609,-0.054445 -0.0272087,-0.123453 -0.0266599,-0.1644292 5.4873e-4,-0.040977 0.0107595,-0.06003 0.019026,-0.1053358 0.008265,-0.045305 0.0178621,-0.073077 0.032528,-0.166501 0.014666,-0.093425 0.134574,-0.3110108 0.0457663,-0.3671892 z"
       id="path2" /><path
       style="fill:#666666;stroke:#000000;stroke-width:0.0122267;stroke-dasharray:none"
       d="m 0.88781653,1.9054244 -0.3356299,3.6436762 c 0,0 -0.0273756,0.1412302 -0.0439368,0.2199751 -0.0139849,0.066499 -0.0182068,0.066907 -0.0125691,0.1190591 0.005453,0.050422 0.0197535,0.095706 0.0404216,0.139477 0.068354,0.1447521 0.1558787,0.28533 0.2712632,0.3962887 0.1280273,0.1231162 0.29192187,0.2048384 0.45114067,0.2835656 0.2069634,0.1023354 0.4221762,0.1986575 0.6489103,0.242224 0.1760601,0.03383 0.3584408,0.014308 0.5377074,0.012056 0.1979781,-0.00249 0.3975094,0.00114 0.5933089,-0.028252 0.2066826,-0.031028 0.4106486,-0.084997 0.6074353,-0.1553912 0.1467808,-0.052511 0.2850588,-0.1266804 0.4237924,-0.1977745 0.1200737,-0.061532 0.2455833,-0.116338 0.35316,-0.1977696 0.079644,-0.060288 0.1593815,-0.1269256 0.2118961,-0.211896 0.04697,-0.076 0.082027,-0.1649738 0.084758,-0.2542753 0.00223,-0.073066 -0.056505,-0.2118959 -0.056505,-0.2118959 L 4.4228205,2.1446381 c 0,0 -0.176674,0.1763365 -0.282528,0.2401488 C 3.9882747,2.4764282 3.8172141,2.5362075 3.6458685,2.5825566 3.4298763,2.6409825 3.2056758,2.6797299 2.9819276,2.6814414 2.7681626,2.6830765 2.556006,2.637867 2.3462396,2.5966829 2.1265792,2.5535564 1.9073967,2.5020094 1.6964251,2.4271661 1.5355579,2.3700976 1.3729314,2.3089622 1.2302539,2.21527 1.1015806,2.130774 0.88781653,1.9054244 0.88781653,1.9054244 Z"
       id="path1" /><ellipse
       style="fill:#4d4d4d;stroke:#000000;stroke-width:0.0122267;stroke-dasharray:none"
       id="path5-3-16"
       cx="1.4281827"
       cy="2.7642105"
       rx="0.085780635"
       ry="0.14296773"
       transform="rotate(-0.11901095)" /><ellipse
       style="fill:#4d4d4d;stroke:#000000;stroke-width:0.0122267;stroke-dasharray:none"
       id="path5-3-77"
       cx="1.780015"
       cy="2.8899696"
       rx="0.085780635"
       ry="0.14296773"
       transform="rotate(-0.11901095)" /><ellipse
       style="fill:#4d4d4d;stroke:#000000;stroke-width:0.0122267;stroke-dasharray:none"
       id="path5-3-6"
       cx="2.1372666"
       cy="2.9711654"
       rx="0.085780635"
       ry="0.14296773"
       transform="rotate(-0.11901095)" /><ellipse
       style="fill:#4d4d4d;stroke:#000000;stroke-width:0.0122267;stroke-dasharray:none"
       id="path5-3-15"
       cx="4.1858373"
       cy="2.7377021"
       rx="0.085780635"
       ry="0.14296773"
       transform="rotate(-0.11901095)" /><ellipse
       style="fill:#4d4d4d;stroke:#000000;stroke-width:0.0122267;stroke-dasharray:none"
       id="path5-3-5"
       cx="3.885293"
       cy="2.8652279"
       rx="0.085780635"
       ry="0.14296773"
       transform="rotate(-0.11901095)" /><ellipse
       style="fill:#4d4d4d;stroke:#000000;stroke-width:0.0122267;stroke-dasharray:none"
       id="path5-3-0"
       cx="3.1186347"
       cy="3.0349996"
       rx="0.085780635"
       ry="0.14296773"
       transform="rotate(-0.11901095)" /><ellipse
       style="fill:#4d4d4d;stroke:#000000;stroke-width:0.0122267;stroke-dasharray:none"
       id="path5-3-8"
       cx="3.5296721"
       cy="2.9650877"
       rx="0.085780635"
       ry="0.14296773"
       transform="rotate(-0.11901095)" /><path
       style="fill:#666666;stroke:none;stroke-width:0.611336"
       d="m 4.563312,3.2110325 0.1310004,0.2498458 0.1638518,0.1841282 5.6585158,3.7213976 1.788669,1.0214514 c 0,0 0.04889,0.00618 0.06887,-0.00526 0.04696,-0.026875 0.0926,-0.1332827 0.0926,-0.1332827 l -0.0716,-0.028834 c 0,0 -0.02451,0.012237 -0.0378,0.01476 -0.02762,0.00524 -0.05695,0.00661 -0.08434,2.607e-4 -0.06436,-0.014936 -0.119712,-0.056171 -0.177692,-0.087844 -0.04894,-0.026731 -0.09174,-0.049617 -0.14342,-0.086121 -0.08207,-0.057968 -0.154671,-0.091808 -0.227978,-0.1437377 -0.04099,-0.02903 -0.09164,-0.050882 -0.118073,-0.093577 -0.01328,-0.021431 -0.02985,-0.053162 -0.01565,-0.07399 0.01492,-0.021888 0.05193,-0.01438 0.07839,-0.013101 0.03874,0.00187 0.07619,0.016184 0.112351,0.030146 0.07386,0.028504 0.135048,0.064622 0.211257,0.1085172 0.06515,0.037529 0.142654,0.072196 0.207685,0.1181934 0.06873,0.048611 0.152401,0.090481 0.19089,0.1653507 0.0094,0.01822 0.0058,0.061197 0.0058,0.061197 l 0.07016,0.029765 c 0,0 0.03634,-0.091255 0.03087,-0.1381099 -0.0039,-0.033151 -0.04374,-0.090073 -0.04374,-0.090073 z"
       id="path3" /><path
       style="fill:#666666;stroke:#000000;stroke-width:0.0122267;stroke-dasharray:none"
       d="M 0.89164393,1.9297161 C 0.87979453,1.8455459 0.97634703,1.749719 1.0617158,1.6663125 1.1470846,1.5829059 1.2444465,1.5419889 1.3953242,1.4742349 1.5462019,1.406481 1.7730185,1.3229089 1.971557,1.2821575 c 0.1985384,-0.040752 0.4389095,-0.054266 0.6065606,-0.050546 0.1676513,0.00371 0.2626705,0.026987 0.3942647,0.050546 0.131594,0.02356 0.2539595,0.049453 0.3942644,0.090984 0.1403048,0.04153 0.3159647,0.090355 0.4448112,0.1617496 0.063551,0.035214 0.1532548,0.073246 0.2061118,0.116412 0.054307,0.04435 0.1108244,0.083198 0.1567034,0.1255995 0.050427,0.046604 0.081489,0.085315 0.1162469,0.1338108 0.027645,0.038571 0.065142,0.077862 0.084713,0.1052392 0.04418,0.0618 0.052627,0.063447 0.042785,0.1254989 C 4.408178,2.2035035 4.298728,2.2627872 4.2360503,2.313311 4.1733733,2.363834 4.1245863,2.40109 4.0439726,2.4447325 3.9633594,2.4883746 3.8554734,2.5319275 3.7508015,2.566045 3.64613,2.6001621 3.537575,2.632536 3.4171934,2.6469195 3.2968114,2.6613031 3.1577034,2.6783864 3.0026575,2.6755131 2.8476118,2.6726399 2.5892425,2.6586867 2.4214229,2.6317548 2.2536032,2.6048226 2.1618504,2.5834622 2.0402287,2.5524134 1.918607,2.5213648 1.8488138,2.4919599 1.7592607,2.4649509 1.6697076,2.4379419 1.5218393,2.3874794 1.4357616,2.3486933 1.3496839,2.3099073 1.2785266,2.2823384 1.1993658,2.2384105 1.1202051,2.1944825 1.0595228,2.1495577 1.0010597,2.106069 0.94259653,2.0625804 0.90349343,2.0138863 0.89164393,1.9297161 Z"
       id="path4" /><ellipse
       style="fill:#4d4d4d;stroke:#000000;stroke-width:0.0122267;stroke-dasharray:none"
       id="path5"
       cx="2.6171608"
       cy="3.0408261"
       rx="0.085780635"
       ry="0.14296773" /><ellipse
       style="fill:#4d4d4d;stroke:#000000;stroke-width:0.0122267;stroke-dasharray:none"
       id="path5-3"
       cx="1.0764951"
       cy="2.5686514"
       rx="0.085780635"
       ry="0.14296773"
       transform="rotate(-0.11901095)" /><ellipse
       style="fill:#4d4d4d;stroke:#000000;stroke-width:0.0126303;stroke-dasharray:none"
       id="path5-3-16-1"
       cx="1.346362"
       cy="3.2462108"
       rx="0.09158434"
       ry="0.1428919"
       transform="matrix(0.99999811,-0.00194447,0.00221884,0.99999754,0,0)" /><ellipse
       style="fill:#4d4d4d;stroke:#000000;stroke-width:0.0126303;stroke-dasharray:none"
       id="path5-3-77-8"
       cx="1.7219981"
       cy="3.3719032"
       rx="0.09158434"
       ry="0.1428919"
       transform="matrix(0.99999811,-0.00194447,0.00221884,0.99999754,0,0)" /><ellipse
       style="fill:#4d4d4d;stroke:#000000;stroke-width:0.0126303;stroke-dasharray:none"
       id="path5-3-6-5"
       cx="2.1034207"
       cy="3.4530556"
       rx="0.09158434"
       ry="0.1428919"
       transform="matrix(0.99999811,-0.00194447,0.00221884,0.99999754,0,0)" /><ellipse
       style="fill:#4d4d4d;stroke:#000000;stroke-width:0.0126303;stroke-dasharray:none"
       id="path5-3-15-5"
       cx="4.2905917"
       cy="3.2197158"
       rx="0.09158434"
       ry="0.1428919"
       transform="matrix(0.99999811,-0.00194447,0.00221884,0.99999754,0,0)" /><ellipse
       style="fill:#4d4d4d;stroke:#000000;stroke-width:0.0126303;stroke-dasharray:none"
       id="path5-3-5-2"
       cx="3.9697151"
       cy="3.3471739"
       rx="0.09158434"
       ry="0.1428919"
       transform="matrix(0.99999811,-0.00194447,0.00221884,0.99999754,0,0)" /><ellipse
       style="fill:#4d4d4d;stroke:#000000;stroke-width:0.0126303;stroke-dasharray:none"
       id="path5-3-0-0"
       cx="3.1511865"
       cy="3.516856"
       rx="0.09158434"
       ry="0.1428919"
       transform="matrix(0.99999811,-0.00194447,0.00221884,0.99999754,0,0)" /><ellipse
       style="fill:#4d4d4d;stroke:#000000;stroke-width:0.0126303;stroke-dasharray:none"
       id="path5-3-8-4"
       cx="3.5900331"
       cy="3.4469812"
       rx="0.09158434"
       ry="0.1428919"
       transform="matrix(0.99999811,-0.00194447,0.00221884,0.99999754,0,0)" /><ellipse
       style="fill:#4d4d4d;stroke:#000000;stroke-width:0.0126303;stroke-dasharray:none"
       id="path5-5"
       cx="2.6168571"
       cy="3.5230243"
       rx="0.091584362"
       ry="0.14289187" /><ellipse
       style="fill:#4d4d4d;stroke:#000000;stroke-width:0.0126303;stroke-dasharray:none"
       id="path5-3-4"
       cx="0.97087997"
       cy="3.0507548"
       rx="0.09158434"
       ry="0.1428919"
       transform="matrix(0.99999811,-0.00194447,0.00221884,0.99999754,0,0)" /><ellipse
       style="fill:#4d4d4d;stroke:#000000;stroke-width:0.0127738;stroke-dasharray:none"
       id="path5-3-16-0"
       cx="1.3155004"
       cy="3.7313507"
       rx="0.093694858"
       ry="0.14286496"
       transform="matrix(0.99999819,-0.00190031,0.0022704,0.99999742,0,0)" /><ellipse
       style="fill:#4d4d4d;stroke:#000000;stroke-width:0.0127738;stroke-dasharray:none"
       id="path5-3-77-9"
       cx="1.6997929"
       cy="3.8570187"
       rx="0.093694858"
       ry="0.14286496"
       transform="matrix(0.99999819,-0.00190031,0.0022704,0.99999742,0,0)" /><ellipse
       style="fill:#4d4d4d;stroke:#000000;stroke-width:0.0127738;stroke-dasharray:none"
       id="path5-3-6-4"
       cx="2.0900054"
       cy="3.9381573"
       rx="0.093694858"
       ry="0.14286496"
       transform="matrix(0.99999819,-0.00190031,0.0022704,0.99999742,0,0)" /><ellipse
       style="fill:#4d4d4d;stroke:#000000;stroke-width:0.0127738;stroke-dasharray:none"
       id="path5-3-15-8"
       cx="4.3275795"
       cy="3.7048609"
       rx="0.093694858"
       ry="0.14286496"
       transform="matrix(0.99999819,-0.00190031,0.0022704,0.99999742,0,0)" /><ellipse
       style="fill:#4d4d4d;stroke:#000000;stroke-width:0.0127738;stroke-dasharray:none"
       id="path5-3-5-6"
       cx="3.9993072"
       cy="3.8322952"
       rx="0.093694858"
       ry="0.14286496"
       transform="matrix(0.99999819,-0.00190031,0.0022704,0.99999742,0,0)" /><ellipse
       style="fill:#4d4d4d;stroke:#000000;stroke-width:0.0127738;stroke-dasharray:none"
       id="path5-3-0-9"
       cx="3.1619155"
       cy="4.0019445"
       rx="0.093694858"
       ry="0.14286496"
       transform="matrix(0.99999819,-0.00190031,0.0022704,0.99999742,0,0)" /><ellipse
       style="fill:#4d4d4d;stroke:#000000;stroke-width:0.0127738;stroke-dasharray:none"
       id="path5-3-8-49"
       cx="3.6108761"
       cy="3.9320834"
       rx="0.093694858"
       ry="0.14286496"
       transform="matrix(0.99999819,-0.00190031,0.0022704,0.99999742,0,0)" /><ellipse
       style="fill:#4d4d4d;stroke:#000000;stroke-width:0.0127738;stroke-dasharray:none"
       id="path5-8"
       cx="2.6163771"
       cy="4.0082288"
       rx="0.093694896"
       ry="0.1428649" /><ellipse
       style="fill:#4d4d4d;stroke:#000000;stroke-width:0.0127738;stroke-dasharray:none"
       id="path5-3-48"
       cx="0.93136585"
       cy="3.5359323"
       rx="0.093694858"
       ry="0.14286496"
       transform="matrix(0.99999819,-0.00190031,0.0022704,0.99999742,0,0)" /><ellipse
       style="fill:#4d4d4d;stroke:#000000;stroke-width:0.0129684;stroke-dasharray:none"
       id="path5-3-16-0-2"
       cx="1.2482074"
       cy="4.1860847"
       rx="0.096596904"
       ry="0.14282839"
       transform="matrix(0.9999983,-0.00184275,0.00234132,0.99999726,0,0)" /><ellipse
       style="fill:#4d4d4d;stroke:#000000;stroke-width:0.0129684;stroke-dasharray:none"
       id="path5-3-77-9-5"
       cx="1.6444026"
       cy="4.3117204"
       rx="0.096596904"
       ry="0.14282839"
       transform="matrix(0.9999983,-0.00184275,0.00234132,0.99999726,0,0)" /><ellipse
       style="fill:#4d4d4d;stroke:#000000;stroke-width:0.0129684;stroke-dasharray:none"
       id="path5-3-6-4-1"
       cx="2.046701"
       cy="4.392838"
       rx="0.096596904"
       ry="0.14282839"
       transform="matrix(0.9999983,-0.00184275,0.00234132,0.99999726,0,0)" /><ellipse
       style="fill:#4d4d4d;stroke:#000000;stroke-width:0.0129684;stroke-dasharray:none"
       id="path5-3-15-8-6"
       cx="4.353581"
       cy="4.1596012"
       rx="0.096596904"
       ry="0.14282839"
       transform="matrix(0.9999983,-0.00184275,0.00234132,0.99999726,0,0)" /><ellipse
       style="fill:#4d4d4d;stroke:#000000;stroke-width:0.0129684;stroke-dasharray:none"
       id="path5-3-5-6-9"
       cx="4.015141"
       cy="4.287003"
       rx="0.096596904"
       ry="0.14282839"
       transform="matrix(0.9999983,-0.00184275,0.00234132,0.99999726,0,0)" /><ellipse
       style="fill:#4d4d4d;stroke:#000000;stroke-width:0.0129684;stroke-dasharray:none"
       id="path5-3-0-9-2"
       cx="3.1518123"
       cy="4.4566092"
       rx="0.096596904"
       ry="0.14282839"
       transform="matrix(0.9999983,-0.00184275,0.00234132,0.99999726,0,0)" /><ellipse
       style="fill:#4d4d4d;stroke:#000000;stroke-width:0.0129684;stroke-dasharray:none"
       id="path5-3-8-49-3"
       cx="3.6146786"
       cy="4.386766"
       rx="0.096596904"
       ry="0.14282839"
       transform="matrix(0.9999983,-0.00184275,0.00234132,0.99999726,0,0)" /><ellipse
       style="fill:#4d4d4d;stroke:#000000;stroke-width:0.0129684;stroke-dasharray:none"
       id="path5-8-5"
       cx="2.5904436"
       cy="4.463089"
       rx="0.096596941"
       ry="0.1428283" /><ellipse
       style="fill:#4d4d4d;stroke:#000000;stroke-width:0.0129684;stroke-dasharray:none"
       id="path5-3-48-9"
       cx="0.85217506"
       cy="3.9907157"
       rx="0.096596904"
       ry="0.14282839"
       transform="matrix(0.9999983,-0.00184275,0.00234132,0.99999726,0,0)" /><ellipse
       style="fill:#4d4d4d;stroke:#000000;stroke-width:0.0131081;stroke-dasharray:none"
       id="path5-3-16-0-2-1"
       cx="1.227443"
       cy="4.6308174"
       rx="0.098707519"
       ry="0.14280213"
       transform="matrix(0.99999837,-0.00180302,0.00239292,0.99999714,0,0)" /><ellipse
       style="fill:#4d4d4d;stroke:#000000;stroke-width:0.0131081;stroke-dasharray:none"
       id="path5-3-77-9-5-6"
       cx="1.6322945"
       cy="4.7564301"
       rx="0.098707519"
       ry="0.14280213"
       transform="matrix(0.99999837,-0.00180302,0.00239292,0.99999714,0,0)" /><ellipse
       style="fill:#4d4d4d;stroke:#000000;stroke-width:0.0131081;stroke-dasharray:none"
       id="path5-3-6-4-1-8"
       cx="2.0433836"
       cy="4.8375325"
       rx="0.098707519"
       ry="0.14280213"
       transform="matrix(0.99999837,-0.00180302,0.00239292,0.99999714,0,0)" /><ellipse
       style="fill:#4d4d4d;stroke:#000000;stroke-width:0.0131081;stroke-dasharray:none"
       id="path5-3-15-8-6-3"
       cx="4.4006672"
       cy="4.6043382"
       rx="0.098707519"
       ry="0.14280213"
       transform="matrix(0.99999837,-0.00180302,0.00239292,0.99999714,0,0)" /><ellipse
       style="fill:#4d4d4d;stroke:#000000;stroke-width:0.0131081;stroke-dasharray:none"
       id="path5-3-5-6-9-9"
       cx="4.0548329"
       cy="4.7317171"
       rx="0.098707519"
       ry="0.14280213"
       transform="matrix(0.99999837,-0.00180302,0.00239292,0.99999714,0,0)" /><ellipse
       style="fill:#4d4d4d;stroke:#000000;stroke-width:0.0131081;stroke-dasharray:none"
       id="path5-3-0-9-2-7"
       cx="3.172641"
       cy="4.9012923"
       rx="0.098707519"
       ry="0.14280213"
       transform="matrix(0.99999837,-0.00180302,0.00239292,0.99999714,0,0)" /><ellipse
       style="fill:#4d4d4d;stroke:#000000;stroke-width:0.0131081;stroke-dasharray:none"
       id="path5-3-8-49-3-3"
       cx="3.6456211"
       cy="4.8314614"
       rx="0.098707519"
       ry="0.14280213"
       transform="matrix(0.99999837,-0.00180302,0.00239292,0.99999714,0,0)" /><ellipse
       style="fill:#4d4d4d;stroke:#000000;stroke-width:0.0131081;stroke-dasharray:none"
       id="path5-8-5-6"
       cx="2.6000738"
       cy="4.9078555"
       rx="0.098707579"
       ry="0.14280201" /><ellipse
       style="fill:#4d4d4d;stroke:#000000;stroke-width:0.0131081;stroke-dasharray:none"
       id="path5-3-48-9-6"
       cx="0.82275736"
       cy="4.4354849"
       rx="0.098707519"
       ry="0.14280213"
       transform="matrix(0.99999837,-0.00180302,0.00239292,0.99999714,0,0)" /><rect
       style="fill:#4d4d4d;stroke:#000000;stroke-width:0.0114269;stroke-dasharray:none"
       id="rect5"
       width="0.071042657"
       height="1.1346327"
       x="1.2477591"
       y="4.8627605"
       transform="matrix(0.99735567,0.07267506,-0.09696114,0.99528817,0,0)" /><rect
       style="fill:#4d4d4d;stroke:#000000;stroke-width:0.0114269;stroke-dasharray:none"
       id="rect5-4"
       width="0.071042657"
       height="1.1346327"
       x="1.5473248"
       y="5.1223688"
       transform="matrix(0.99735567,0.07267506,-0.09696114,0.99528817,0,0)" /><rect
       style="fill:#4d4d4d;stroke:#000000;stroke-width:0.0114269;stroke-dasharray:none"
       id="rect5-4-0"
       width="0.071042657"
       height="1.1346327"
       x="1.8337792"
       y="5.2538104"
       transform="matrix(0.99735567,0.07267506,-0.09696114,0.99528817,0,0)" /><rect
       style="fill:#4d4d4d;stroke:#000000;stroke-width:0.0114269;stroke-dasharray:none"
       id="rect5-4-2"
       width="0.071042657"
       height="1.1346327"
       x="2.1848035"
       y="5.3195939"
       transform="matrix(0.99735567,0.07267506,-0.09696114,0.99528817,0,0)" /><rect
       style="fill:#4d4d4d;stroke:#000000;stroke-width:0.0114269;stroke-dasharray:none"
       id="rect5-4-8"
       width="0.071042657"
       height="1.1346327"
       x="2.5254343"
       y="5.6681528"
       transform="matrix(0.99985972,-0.01674943,-0.00762424,0.99997094,0,0)" /><rect
       style="fill:#4d4d4d;stroke:#000000;stroke-width:0.0114269;stroke-dasharray:none"
       id="rect5-4-8-3"
       width="0.071042657"
       height="1.1346327"
       x="2.4045031"
       y="5.479208"
       transform="matrix(0.99918953,0.04025282,-0.06459322,0.99791168,0,0)" /><rect
       style="fill:#4d4d4d;stroke:#000000;stroke-width:0.0114269;stroke-dasharray:none"
       id="rect5-2"
       width="0.071042657"
       height="1.1346327"
       x="-4.0659037"
       y="5.1019726"
       transform="matrix(-0.99964708,0.02656524,0.05092087,0.99870269,0,0)" /><rect
       style="fill:#4d4d4d;stroke:#000000;stroke-width:0.0114269;stroke-dasharray:none"
       id="rect5-4-7"
       width="0.071042657"
       height="1.1346327"
       x="-3.7663376"
       y="5.3615808"
       transform="matrix(-0.99964708,0.02656524,0.05092087,0.99870269,0,0)" /><rect
       style="fill:#4d4d4d;stroke:#000000;stroke-width:0.0114269;stroke-dasharray:none"
       id="rect5-4-0-5"
       width="0.071042657"
       height="1.1346327"
       x="-3.4798834"
       y="5.4930229"
       transform="matrix(-0.99964708,0.02656524,0.05092087,0.99870269,0,0)" /><rect
       style="fill:#4d4d4d;stroke:#000000;stroke-width:0.0114269;stroke-dasharray:none"
       id="rect5-4-2-7"
       width="0.071042657"
       height="1.1346327"
       x="-3.128859"
       y="5.5588064"
       transform="matrix(-0.99964708,0.02656524,0.05092087,0.99870269,0,0)" /><rect
       style="fill:#4d4d4d;stroke:#000000;stroke-width:0.0114269;stroke-dasharray:none"
       id="rect5-4-8-3-1"
       width="0.071042657"
       height="1.1346327"
       x="-2.9183328"
       y="5.5455208"
       transform="matrix(-0.99998255,-0.00590709,0.01846635,0.99982948,0,0)" /><path
       style="fill:none;stroke:#00ff00;stroke-width:0.122267;stroke-dasharray:none"
       d="m 9.1690958,4.6022224 c 0,0 1.0526782,-0.065083 1.5154582,0.1429679 0.535102,0.2405651 0.997784,0.6903135 1.286709,1.2009291 0.292751,0.5173762 0.590286,1.1913877 0.371717,1.7442064 C 12.146608,8.1870013 11.552745,8.5075857 11.027676,8.605319 10.159524,8.766913 8.9707921,8.692496 8.4542572,7.9762612 7.9060774,7.2161473 9.1211046,6.0025522 8.6830057,5.1740935 8.267967,4.3892423 6.9615217,4.5181137 6.3669283,3.8587904 5.9696314,3.4182422 5.6520896,2.2289581 5.6520896,2.2289581"
       id="path6" /><path
       style="fill:#666666;stroke:none;stroke-width:0.1;stroke-dasharray:none"
       d="m 12.093528,9.3909741 -0.05408,0.06285 0.159318,0.1023143 0.05993,-0.06285 z"
       id="path7"
       transform="matrix(1.2226737,0,0,1.2226737,-2.6686328,-3.6613127)" /></g></svg>
